<svg id="Layer_1" data-name="Layer 1" xmlns="http://www.w3.org/2000/svg" viewBox="0 0 544.31 460.58"><defs><style>.cls-1{font-size:97.77px;fill:#231f20;font-family:Avenir-Light, Avenir;font-weight:300;letter-spacing:-0.01em;}.cls-2{letter-spacing:-0.03em;}.cls-3{letter-spacing:-0.01em;}.cls-4{fill:#55caf5;}</style></defs><title>preactive-logo</title><text class="cls-1" transform="translate(72.17 263.2)">P<tspan class="cls-2" x="55.34" y="0">r</tspan><tspan x="85.35" y="0">eAc</tspan><tspan class="cls-3" x="251.37" y="0">t</tspan><tspan x="283.24" y="0">ive</tspan></text><path class="cls-4" d="M241.76,785.08c91.32,39.38,198-50,302.51-137.55,0,0,4-3.32,7.64-7.06,3.19-3.25,6.49-8.77,6-9.64C554.8,625.42,391.8,768.76,287.94,735.9,171.53,699.08,169.09,453.47,153.87,456,137.77,458.59,119.42,732.33,241.76,785.08Z" transform="translate(-142.26 -334.06)"/><path class="cls-4" d="M587.09,343.63c-91.33-39.38-198,50-302.52,137.55,0,0-3.95,3.31-7.63,7.06-3.2,3.24-6.49,8.76-6,9.64,3.1,5.4,166.09-137.93,270-105.08,116.42,36.83,118.86,282.44,134.07,280C691.07,670.12,709.43,396.38,587.09,343.63Z" transform="translate(-142.26 -334.06)"/></svg>