<svg id="Layer_1" data-name="Layer 1" xmlns="http://www.w3.org/2000/svg" viewBox="0 0 12.21 8.71"><defs><style>.cls-1{fill:#55c9f4;}</style></defs><title>preactive-logo</title><path class="cls-1" d="M4.11,12c2.14.93,4.64-1.17,7.09-3.22l.18-.16a.62.62,0,0,0,.14-.23c-.08-.12-3.89,3.23-6.32,2.46C2.47,10,2.41,4.27,2.06,4.33S1.25,10.8,4.11,12Z" transform="translate(-1.79 -3.55)"/><path class="cls-1" d="M11.67,3.78C9.53,2.85,7,5,4.59,7l-.18.16a.5.5,0,0,0-.14.23c.07.12,3.89-3.23,6.32-2.46,2.72.86,2.78,6.61,3.14,6.55S14.53,5,11.67,3.78Z" transform="translate(-1.79 -3.55)"/><path class="cls-1" d="M4.11,12c2.14.93,4.64-1.17,7.09-3.22l.18-.16a.62.62,0,0,0,.14-.23c-.08-.12-3.89,3.23-6.32,2.46C2.47,10,2.41,4.27,2.06,4.33S1.25,10.8,4.11,12Z" transform="translate(-1.79 -3.55)"/><path class="cls-1" d="M11.67,3.78C9.53,2.85,7,5,4.59,7l-.18.16a.5.5,0,0,0-.14.23c.07.12,3.89-3.23,6.32-2.46,2.72.86,2.78,6.61,3.14,6.55S14.53,5,11.67,3.78Z" transform="translate(-1.79 -3.55)"/></svg>